<?xml version="1.0" encoding="UTF-8" standalone="no"?>
<!DOCTYPE svg PUBLIC "-//W3C//DTD SVG 1.1//EN"
 "http://www.w3.org/Graphics/SVG/1.1/DTD/svg11.dtd">
<!-- Generated by graphviz version 2.40.1 (20161225.0304)
 -->
<!-- Title: dependencies Pages: 1 -->
<svg width="3334pt" height="284pt"
 viewBox="0.00 0.00 3334.00 284.00" xmlns="http://www.w3.org/2000/svg" xmlns:xlink="http://www.w3.org/1999/xlink">
<g id="graph0" class="graph" transform="scale(1 1) rotate(0) translate(4 280)">
<title>dependencies</title>
<polygon fill="#ffffff" stroke="transparent" points="-4,4 -4,-280 3330,-280 3330,4 -4,4"/>
<text text-anchor="start" x="1642.0091" y="-42.4" font-family="sans-serif" font-weight="bold" font-size="14.00" fill="#000000">Legend</text>
<polygon fill="#ffffb3" stroke="transparent" points="1429,-10 1429,-30 1449,-30 1449,-10 1429,-10"/>
<text text-anchor="start" x="1452.629" y="-15.4" font-family="sans-serif" font-size="14.00" fill="#000000"> &#160;Declarations</text>
<polygon fill="#8dd3c7" stroke="transparent" points="1542,-10 1542,-30 1562,-30 1562,-10 1542,-10"/>
<text text-anchor="start" x="1565.7251" y="-15.4" font-family="sans-serif" font-size="14.00" fill="#000000"> &#160;Module</text>
<polygon fill="#80b1d3" stroke="transparent" points="1628,-10 1628,-30 1648,-30 1648,-10 1628,-10"/>
<text text-anchor="start" x="1651.7812" y="-15.4" font-family="sans-serif" font-size="14.00" fill="#000000"> &#160;Bootstrap</text>
<polygon fill="#fdb462" stroke="transparent" points="1725,-10 1725,-30 1745,-30 1745,-10 1725,-10"/>
<text text-anchor="start" x="1748.6732" y="-15.4" font-family="sans-serif" font-size="14.00" fill="#000000"> &#160;Providers</text>
<polygon fill="#fb8072" stroke="transparent" points="1821,-10 1821,-30 1841,-30 1841,-10 1821,-10"/>
<text text-anchor="start" x="1844.7258" y="-15.4" font-family="sans-serif" font-size="14.00" fill="#000000"> &#160;Exports</text>
<g id="clust1" class="cluster">
<title>cluster_AppModule</title>
<polygon fill="none" stroke="#000000" stroke-dasharray="1,5" points="8,-70 8,-268 298,-268 298,-70 8,-70"/>
</g>
<g id="clust2" class="cluster">
<title>cluster_AppModule_declarations</title>
<polygon fill="none" stroke="#000000" points="168,-78 168,-130 290,-130 290,-78 168,-78"/>
</g>
<g id="clust4" class="cluster">
<title>cluster_AppModule_imports</title>
<polygon fill="none" stroke="#000000" points="16,-78 16,-130 160,-130 160,-78 16,-78"/>
</g>
<g id="clust6" class="cluster">
<title>cluster_AppModule_bootstrap</title>
<polygon fill="none" stroke="#000000" points="96,-208 96,-260 220,-260 220,-208 96,-208"/>
</g>
<g id="clust14" class="cluster">
<title>cluster_CreateAccountPageModule</title>
<polygon fill="none" stroke="#000000" stroke-dasharray="1,5" points="306,-70 306,-195 492,-195 492,-70 306,-70"/>
</g>
<g id="clust15" class="cluster">
<title>cluster_CreateAccountPageModule_declarations</title>
<polygon fill="none" stroke="#000000" points="327,-78 327,-130 471,-130 471,-78 327,-78"/>
</g>
<g id="clust21" class="cluster">
<title>cluster_CreateLoginPageModule</title>
<polygon fill="none" stroke="#000000" stroke-dasharray="1,5" points="500,-70 500,-195 672,-195 672,-70 500,-70"/>
</g>
<g id="clust22" class="cluster">
<title>cluster_CreateLoginPageModule_declarations</title>
<polygon fill="none" stroke="#000000" points="521,-78 521,-130 651,-130 651,-78 521,-78"/>
</g>
<g id="clust28" class="cluster">
<title>cluster_DashboardPageModule</title>
<polygon fill="none" stroke="#000000" stroke-dasharray="1,5" points="680,-70 680,-195 1472,-195 1472,-70 680,-70"/>
</g>
<g id="clust29" class="cluster">
<title>cluster_DashboardPageModule_declarations</title>
<polygon fill="none" stroke="#000000" points="876,-78 876,-130 1464,-130 1464,-78 876,-78"/>
</g>
<g id="clust37" class="cluster">
<title>cluster_DashboardPageModule_providers</title>
<polygon fill="none" stroke="#000000" points="688,-78 688,-130 868,-130 868,-78 688,-78"/>
</g>
<g id="clust38" class="cluster">
<title>cluster_DashboardSummaryPageModule</title>
<polygon fill="none" stroke="#000000" stroke-dasharray="1,5" points="1480,-70 1480,-195 1698,-195 1698,-70 1480,-70"/>
</g>
<g id="clust39" class="cluster">
<title>cluster_DashboardSummaryPageModule_declarations</title>
<polygon fill="none" stroke="#000000" points="1502,-78 1502,-130 1676,-130 1676,-78 1502,-78"/>
</g>
<g id="clust45" class="cluster">
<title>cluster_DetailsScreenPageModule</title>
<polygon fill="none" stroke="#000000" stroke-dasharray="1,5" points="1706,-70 1706,-195 1886,-195 1886,-70 1706,-70"/>
</g>
<g id="clust46" class="cluster">
<title>cluster_DetailsScreenPageModule_declarations</title>
<polygon fill="none" stroke="#000000" points="1728,-78 1728,-130 1864,-130 1864,-78 1728,-78"/>
</g>
<g id="clust52" class="cluster">
<title>cluster_InternalTransferPageModule</title>
<polygon fill="none" stroke="#000000" stroke-dasharray="1,5" points="1894,-70 1894,-195 2088,-195 2088,-70 1894,-70"/>
</g>
<g id="clust53" class="cluster">
<title>cluster_InternalTransferPageModule_declarations</title>
<polygon fill="none" stroke="#000000" points="1916,-78 1916,-130 2066,-130 2066,-78 1916,-78"/>
</g>
<g id="clust59" class="cluster">
<title>cluster_InviteUserPageModule</title>
<polygon fill="none" stroke="#000000" stroke-dasharray="1,5" points="2096,-70 2096,-195 2258,-195 2258,-70 2096,-70"/>
</g>
<g id="clust60" class="cluster">
<title>cluster_InviteUserPageModule_declarations</title>
<polygon fill="none" stroke="#000000" points="2118,-78 2118,-130 2236,-130 2236,-78 2118,-78"/>
</g>
<g id="clust66" class="cluster">
<title>cluster_LoginPageModule</title>
<polygon fill="none" stroke="#000000" stroke-dasharray="1,5" points="2266,-70 2266,-195 2402,-195 2402,-70 2266,-70"/>
</g>
<g id="clust67" class="cluster">
<title>cluster_LoginPageModule_declarations</title>
<polygon fill="none" stroke="#000000" points="2288,-78 2288,-130 2380,-130 2380,-78 2288,-78"/>
</g>
<g id="clust73" class="cluster">
<title>cluster_LoginScreenPageModule</title>
<polygon fill="none" stroke="#000000" stroke-dasharray="1,5" points="2410,-70 2410,-195 2584,-195 2584,-70 2410,-70"/>
</g>
<g id="clust74" class="cluster">
<title>cluster_LoginScreenPageModule_declarations</title>
<polygon fill="none" stroke="#000000" points="2432,-78 2432,-130 2562,-130 2562,-78 2432,-78"/>
</g>
<g id="clust80" class="cluster">
<title>cluster_MeedsharePageModule</title>
<polygon fill="none" stroke="#000000" stroke-dasharray="1,5" points="2592,-70 2592,-195 2756,-195 2756,-70 2592,-70"/>
</g>
<g id="clust81" class="cluster">
<title>cluster_MeedsharePageModule_declarations</title>
<polygon fill="none" stroke="#000000" points="2614,-78 2614,-130 2734,-130 2734,-78 2614,-78"/>
</g>
<g id="clust87" class="cluster">
<title>cluster_P2pTransferPageModule</title>
<polygon fill="none" stroke="#000000" stroke-dasharray="1,5" points="2764,-70 2764,-195 2936,-195 2936,-70 2764,-70"/>
</g>
<g id="clust88" class="cluster">
<title>cluster_P2pTransferPageModule_declarations</title>
<polygon fill="none" stroke="#000000" points="2786,-78 2786,-130 2914,-130 2914,-78 2786,-78"/>
</g>
<g id="clust94" class="cluster">
<title>cluster_SingupEmailPageModule</title>
<polygon fill="none" stroke="#000000" stroke-dasharray="1,5" points="2944,-70 2944,-195 3120,-195 3120,-70 2944,-70"/>
</g>
<g id="clust95" class="cluster">
<title>cluster_SingupEmailPageModule_declarations</title>
<polygon fill="none" stroke="#000000" points="2966,-78 2966,-130 3098,-130 3098,-78 2966,-78"/>
</g>
<g id="clust101" class="cluster">
<title>cluster_TransactionListPageModule</title>
<polygon fill="none" stroke="#000000" stroke-dasharray="1,5" points="3128,-70 3128,-195 3318,-195 3318,-70 3128,-70"/>
</g>
<g id="clust102" class="cluster">
<title>cluster_TransactionListPageModule_declarations</title>
<polygon fill="none" stroke="#000000" points="3149,-78 3149,-130 3297,-130 3297,-78 3149,-78"/>
</g>
<!-- AppComponent -->
<g id="node1" class="node">
<title>AppComponent</title>
<polygon fill="#ffffb3" stroke="#000000" points="281.9399,-122 176.0601,-122 176.0601,-86 281.9399,-86 281.9399,-122"/>
<text text-anchor="middle" x="229" y="-99.8" font-family="Times,serif" font-size="14.00" fill="#000000">AppComponent</text>
</g>
<!-- AppModule -->
<g id="node2" class="node">
<title>AppModule</title>
<polygon fill="#8dd3c7" stroke="#000000" points="199.6571,-187 196.6571,-191 175.6571,-191 172.6571,-187 116.3429,-187 116.3429,-151 199.6571,-151 199.6571,-187"/>
<text text-anchor="middle" x="158" y="-164.8" font-family="Times,serif" font-size="14.00" fill="#000000">AppModule</text>
</g>
<!-- AppComponent&#45;&gt;AppModule -->
<g id="edge1" class="edge">
<title>AppComponent&#45;&gt;AppModule</title>
<path fill="none" stroke="#000000" d="M188.0544,-122.1061C188.0544,-122.1061 188.0544,-140.991 188.0544,-140.991"/>
<polygon fill="#000000" stroke="#000000" points="184.5544,-140.9909 188.0544,-150.991 191.5544,-140.991 184.5544,-140.9909"/>
</g>
<!-- AppComponent  -->
<g id="node4" class="node">
<title>AppComponent </title>
<polygon fill="#80b1d3" stroke="#000000" points="212.439,-252 103.561,-252 103.561,-216 212.439,-216 212.439,-252"/>
<text text-anchor="middle" x="158" y="-229.8" font-family="Times,serif" font-size="14.00" fill="#000000">AppComponent </text>
</g>
<!-- AppModule&#45;&gt;AppComponent  -->
<g id="edge3" class="edge">
<title>AppModule&#45;&gt;AppComponent </title>
<path fill="none" stroke="#000000" stroke-dasharray="1,5" d="M158,-187.1061C158,-187.1061 158,-205.991 158,-205.991"/>
<polygon fill="#000000" stroke="#000000" points="154.5001,-205.9909 158,-215.991 161.5001,-205.991 154.5001,-205.9909"/>
</g>
<!-- AppRoutingModule -->
<g id="node3" class="node">
<title>AppRoutingModule</title>
<polygon fill="#8dd3c7" stroke="#000000" points="152.2744,-122 149.2744,-126 128.2744,-126 125.2744,-122 23.7256,-122 23.7256,-86 152.2744,-86 152.2744,-122"/>
<text text-anchor="middle" x="88" y="-99.8" font-family="Times,serif" font-size="14.00" fill="#000000">AppRoutingModule</text>
</g>
<!-- AppRoutingModule&#45;&gt;AppModule -->
<g id="edge2" class="edge">
<title>AppRoutingModule&#45;&gt;AppModule</title>
<path fill="none" stroke="#000000" d="M134.2795,-122.1061C134.2795,-122.1061 134.2795,-140.991 134.2795,-140.991"/>
<polygon fill="#000000" stroke="#000000" points="130.7795,-140.9909 134.2795,-150.991 137.7795,-140.991 130.7795,-140.9909"/>
</g>
<!-- CreateAccountPage -->
<g id="node5" class="node">
<title>CreateAccountPage</title>
<polygon fill="#ffffb3" stroke="#000000" points="462.6699,-122 335.3301,-122 335.3301,-86 462.6699,-86 462.6699,-122"/>
<text text-anchor="middle" x="399" y="-99.8" font-family="Times,serif" font-size="14.00" fill="#000000">CreateAccountPage</text>
</g>
<!-- CreateAccountPageModule -->
<g id="node6" class="node">
<title>CreateAccountPageModule</title>
<polygon fill="#8dd3c7" stroke="#000000" points="484.2198,-187 481.2198,-191 460.2198,-191 457.2198,-187 313.7802,-187 313.7802,-151 484.2198,-151 484.2198,-187"/>
<text text-anchor="middle" x="399" y="-164.8" font-family="Times,serif" font-size="14.00" fill="#000000">CreateAccountPageModule</text>
</g>
<!-- CreateAccountPage&#45;&gt;CreateAccountPageModule -->
<g id="edge4" class="edge">
<title>CreateAccountPage&#45;&gt;CreateAccountPageModule</title>
<path fill="none" stroke="#000000" d="M399,-122.1061C399,-122.1061 399,-140.991 399,-140.991"/>
<polygon fill="#000000" stroke="#000000" points="395.5001,-140.9909 399,-150.991 402.5001,-140.991 395.5001,-140.9909"/>
</g>
<!-- CreateLoginPage -->
<g id="node7" class="node">
<title>CreateLoginPage</title>
<polygon fill="#ffffb3" stroke="#000000" points="642.6868,-122 529.3132,-122 529.3132,-86 642.6868,-86 642.6868,-122"/>
<text text-anchor="middle" x="586" y="-99.8" font-family="Times,serif" font-size="14.00" fill="#000000">CreateLoginPage</text>
</g>
<!-- CreateLoginPageModule -->
<g id="node8" class="node">
<title>CreateLoginPageModule</title>
<polygon fill="#8dd3c7" stroke="#000000" points="664.2366,-187 661.2366,-191 640.2366,-191 637.2366,-187 507.7634,-187 507.7634,-151 664.2366,-151 664.2366,-187"/>
<text text-anchor="middle" x="586" y="-164.8" font-family="Times,serif" font-size="14.00" fill="#000000">CreateLoginPageModule</text>
</g>
<!-- CreateLoginPage&#45;&gt;CreateLoginPageModule -->
<g id="edge5" class="edge">
<title>CreateLoginPage&#45;&gt;CreateLoginPageModule</title>
<path fill="none" stroke="#000000" d="M586,-122.1061C586,-122.1061 586,-140.991 586,-140.991"/>
<polygon fill="#000000" stroke="#000000" points="582.5001,-140.9909 586,-150.991 589.5001,-140.991 582.5001,-140.9909"/>
</g>
<!-- AccountSummaryComponent -->
<g id="node9" class="node">
<title>AccountSummaryComponent</title>
<polygon fill="#ffffb3" stroke="#000000" points="1455.6979,-122 1272.3021,-122 1272.3021,-86 1455.6979,-86 1455.6979,-122"/>
<text text-anchor="middle" x="1364" y="-99.8" font-family="Times,serif" font-size="14.00" fill="#000000">AccountSummaryComponent</text>
</g>
<!-- DashboardPageModule -->
<g id="node13" class="node">
<title>DashboardPageModule</title>
<polygon fill="#8dd3c7" stroke="#000000" points="1129.9032,-187 1126.9032,-191 1105.9032,-191 1102.9032,-187 982.0968,-187 982.0968,-151 1129.9032,-151 1129.9032,-187"/>
<text text-anchor="middle" x="1056" y="-164.8" font-family="Times,serif" font-size="14.00" fill="#000000">DashboardPageModule</text>
</g>
<!-- AccountSummaryComponent&#45;&gt;DashboardPageModule -->
<g id="edge6" class="edge">
<title>AccountSummaryComponent&#45;&gt;DashboardPageModule</title>
<path fill="none" stroke="#000000" d="M1364,-122.1061C1364,-141.3391 1364,-169 1364,-169 1364,-169 1139.7737,-169 1139.7737,-169"/>
<polygon fill="#000000" stroke="#000000" points="1139.7737,-165.5001 1129.7737,-169 1139.7736,-172.5001 1139.7737,-165.5001"/>
</g>
<!-- DashboardDirective -->
<g id="node10" class="node">
<title>DashboardDirective</title>
<polygon fill="#ffffb3" stroke="#000000" points="1254.2241,-122 1125.7759,-122 1125.7759,-86 1254.2241,-86 1254.2241,-122"/>
<text text-anchor="middle" x="1190" y="-99.8" font-family="Times,serif" font-size="14.00" fill="#000000">DashboardDirective</text>
</g>
<!-- DashboardDirective&#45;&gt;DashboardPageModule -->
<g id="edge7" class="edge">
<title>DashboardDirective&#45;&gt;DashboardPageModule</title>
<path fill="none" stroke="#000000" d="M1125.7602,-104C1120.2858,-104 1116.7823,-104 1116.7823,-104 1116.7823,-104 1116.7823,-140.8939 1116.7823,-140.8939"/>
<polygon fill="#000000" stroke="#000000" points="1113.2823,-140.8938 1116.7823,-150.8939 1120.2823,-140.8939 1113.2823,-140.8938"/>
</g>
<!-- DashboardPage -->
<g id="node11" class="node">
<title>DashboardPage</title>
<polygon fill="#ffffb3" stroke="#000000" points="1107.8529,-122 1004.1471,-122 1004.1471,-86 1107.8529,-86 1107.8529,-122"/>
<text text-anchor="middle" x="1056" y="-99.8" font-family="Times,serif" font-size="14.00" fill="#000000">DashboardPage</text>
</g>
<!-- DashboardPage&#45;&gt;DashboardPageModule -->
<g id="edge8" class="edge">
<title>DashboardPage&#45;&gt;DashboardPageModule</title>
<path fill="none" stroke="#000000" d="M1056,-122.1061C1056,-122.1061 1056,-140.991 1056,-140.991"/>
<polygon fill="#000000" stroke="#000000" points="1052.5001,-140.9909 1056,-150.991 1059.5001,-140.991 1052.5001,-140.9909"/>
</g>
<!-- DashboardPipe -->
<g id="node12" class="node">
<title>DashboardPipe</title>
<polygon fill="#ffffb3" stroke="#000000" points="985.5299,-122 884.4701,-122 884.4701,-86 985.5299,-86 985.5299,-122"/>
<text text-anchor="middle" x="935" y="-99.8" font-family="Times,serif" font-size="14.00" fill="#000000">DashboardPipe</text>
</g>
<!-- DashboardPipe&#45;&gt;DashboardPageModule -->
<g id="edge9" class="edge">
<title>DashboardPipe&#45;&gt;DashboardPageModule</title>
<path fill="none" stroke="#000000" d="M985.5567,-104C991.1741,-104 994.919,-104 994.919,-104 994.919,-104 994.919,-140.8939 994.919,-140.8939"/>
<polygon fill="#000000" stroke="#000000" points="991.4191,-140.8938 994.919,-150.8939 998.4191,-140.8939 991.4191,-140.8938"/>
</g>
<!-- DashboardService -->
<g id="node14" class="node">
<title>DashboardService</title>
<ellipse fill="#fdb462" stroke="#000000" cx="778" cy="-104" rx="81.6423" ry="18"/>
<text text-anchor="middle" x="778" y="-99.8" font-family="Times,serif" font-size="14.00" fill="#000000">DashboardService</text>
</g>
<!-- DashboardService&#45;&gt;DashboardPageModule -->
<g id="edge10" class="edge">
<title>DashboardService&#45;&gt;DashboardPageModule</title>
<path fill="none" stroke="#000000" d="M778,-122.1061C778,-141.3391 778,-169 778,-169 778,-169 972.231,-169 972.231,-169"/>
<polygon fill="#000000" stroke="#000000" points="972.231,-172.5001 982.231,-169 972.2309,-165.5001 972.231,-172.5001"/>
</g>
<!-- DashboardSummaryPage -->
<g id="node15" class="node">
<title>DashboardSummaryPage</title>
<polygon fill="#ffffb3" stroke="#000000" points="1668.2921,-122 1509.7079,-122 1509.7079,-86 1668.2921,-86 1668.2921,-122"/>
<text text-anchor="middle" x="1589" y="-99.8" font-family="Times,serif" font-size="14.00" fill="#000000">DashboardSummaryPage</text>
</g>
<!-- DashboardSummaryPageModule -->
<g id="node16" class="node">
<title>DashboardSummaryPageModule</title>
<polygon fill="#8dd3c7" stroke="#000000" points="1689.8417,-187 1686.8417,-191 1665.8417,-191 1662.8417,-187 1488.1583,-187 1488.1583,-151 1689.8417,-151 1689.8417,-187"/>
<text text-anchor="middle" x="1589" y="-164.8" font-family="Times,serif" font-size="14.00" fill="#000000">DashboardSummaryPageModule</text>
</g>
<!-- DashboardSummaryPage&#45;&gt;DashboardSummaryPageModule -->
<g id="edge11" class="edge">
<title>DashboardSummaryPage&#45;&gt;DashboardSummaryPageModule</title>
<path fill="none" stroke="#000000" d="M1589,-122.1061C1589,-122.1061 1589,-140.991 1589,-140.991"/>
<polygon fill="#000000" stroke="#000000" points="1585.5001,-140.9909 1589,-150.991 1592.5001,-140.991 1585.5001,-140.9909"/>
</g>
<!-- DetailsScreenPage -->
<g id="node17" class="node">
<title>DetailsScreenPage</title>
<polygon fill="#ffffb3" stroke="#000000" points="1856.451,-122 1735.549,-122 1735.549,-86 1856.451,-86 1856.451,-122"/>
<text text-anchor="middle" x="1796" y="-99.8" font-family="Times,serif" font-size="14.00" fill="#000000">DetailsScreenPage</text>
</g>
<!-- DetailsScreenPageModule -->
<g id="node18" class="node">
<title>DetailsScreenPageModule</title>
<polygon fill="#8dd3c7" stroke="#000000" points="1878.0016,-187 1875.0016,-191 1854.0016,-191 1851.0016,-187 1713.9984,-187 1713.9984,-151 1878.0016,-151 1878.0016,-187"/>
<text text-anchor="middle" x="1796" y="-164.8" font-family="Times,serif" font-size="14.00" fill="#000000">DetailsScreenPageModule</text>
</g>
<!-- DetailsScreenPage&#45;&gt;DetailsScreenPageModule -->
<g id="edge12" class="edge">
<title>DetailsScreenPage&#45;&gt;DetailsScreenPageModule</title>
<path fill="none" stroke="#000000" d="M1796,-122.1061C1796,-122.1061 1796,-140.991 1796,-140.991"/>
<polygon fill="#000000" stroke="#000000" points="1792.5001,-140.9909 1796,-150.991 1799.5001,-140.991 1792.5001,-140.9909"/>
</g>
<!-- InternalTransferPage -->
<g id="node19" class="node">
<title>InternalTransferPage</title>
<polygon fill="#ffffb3" stroke="#000000" points="2058.1517,-122 1923.8483,-122 1923.8483,-86 2058.1517,-86 2058.1517,-122"/>
<text text-anchor="middle" x="1991" y="-99.8" font-family="Times,serif" font-size="14.00" fill="#000000">InternalTransferPage</text>
</g>
<!-- InternalTransferPageModule -->
<g id="node20" class="node">
<title>InternalTransferPageModule</title>
<polygon fill="#8dd3c7" stroke="#000000" points="2079.7017,-187 2076.7017,-191 2055.7017,-191 2052.7017,-187 1902.2983,-187 1902.2983,-151 2079.7017,-151 2079.7017,-187"/>
<text text-anchor="middle" x="1991" y="-164.8" font-family="Times,serif" font-size="14.00" fill="#000000">InternalTransferPageModule</text>
</g>
<!-- InternalTransferPage&#45;&gt;InternalTransferPageModule -->
<g id="edge13" class="edge">
<title>InternalTransferPage&#45;&gt;InternalTransferPageModule</title>
<path fill="none" stroke="#000000" d="M1991,-122.1061C1991,-122.1061 1991,-140.991 1991,-140.991"/>
<polygon fill="#000000" stroke="#000000" points="1987.5001,-140.9909 1991,-150.991 1994.5001,-140.991 1987.5001,-140.9909"/>
</g>
<!-- InviteUserPage -->
<g id="node21" class="node">
<title>InviteUserPage</title>
<polygon fill="#ffffb3" stroke="#000000" points="2228.295,-122 2125.705,-122 2125.705,-86 2228.295,-86 2228.295,-122"/>
<text text-anchor="middle" x="2177" y="-99.8" font-family="Times,serif" font-size="14.00" fill="#000000">InviteUserPage</text>
</g>
<!-- InviteUserPageModule -->
<g id="node22" class="node">
<title>InviteUserPageModule</title>
<polygon fill="#8dd3c7" stroke="#000000" points="2249.8445,-187 2246.8445,-191 2225.8445,-191 2222.8445,-187 2104.1555,-187 2104.1555,-151 2249.8445,-151 2249.8445,-187"/>
<text text-anchor="middle" x="2177" y="-164.8" font-family="Times,serif" font-size="14.00" fill="#000000">InviteUserPageModule</text>
</g>
<!-- InviteUserPage&#45;&gt;InviteUserPageModule -->
<g id="edge14" class="edge">
<title>InviteUserPage&#45;&gt;InviteUserPageModule</title>
<path fill="none" stroke="#000000" d="M2177,-122.1061C2177,-122.1061 2177,-140.991 2177,-140.991"/>
<polygon fill="#000000" stroke="#000000" points="2173.5001,-140.9909 2177,-150.991 2180.5001,-140.991 2173.5001,-140.9909"/>
</g>
<!-- LoginPage -->
<g id="node23" class="node">
<title>LoginPage</title>
<polygon fill="#ffffb3" stroke="#000000" points="2372.1558,-122 2295.8442,-122 2295.8442,-86 2372.1558,-86 2372.1558,-122"/>
<text text-anchor="middle" x="2334" y="-99.8" font-family="Times,serif" font-size="14.00" fill="#000000">LoginPage</text>
</g>
<!-- LoginPageModule -->
<g id="node24" class="node">
<title>LoginPageModule</title>
<polygon fill="#8dd3c7" stroke="#000000" points="2394.205,-187 2391.205,-191 2370.205,-191 2367.205,-187 2273.795,-187 2273.795,-151 2394.205,-151 2394.205,-187"/>
<text text-anchor="middle" x="2334" y="-164.8" font-family="Times,serif" font-size="14.00" fill="#000000">LoginPageModule</text>
</g>
<!-- LoginPage&#45;&gt;LoginPageModule -->
<g id="edge15" class="edge">
<title>LoginPage&#45;&gt;LoginPageModule</title>
<path fill="none" stroke="#000000" d="M2334,-122.1061C2334,-122.1061 2334,-140.991 2334,-140.991"/>
<polygon fill="#000000" stroke="#000000" points="2330.5001,-140.9909 2334,-150.991 2337.5001,-140.991 2330.5001,-140.9909"/>
</g>
<!-- LoginScreenPage -->
<g id="node25" class="node">
<title>LoginScreenPage</title>
<polygon fill="#ffffb3" stroke="#000000" points="2554.2423,-122 2439.7577,-122 2439.7577,-86 2554.2423,-86 2554.2423,-122"/>
<text text-anchor="middle" x="2497" y="-99.8" font-family="Times,serif" font-size="14.00" fill="#000000">LoginScreenPage</text>
</g>
<!-- LoginScreenPageModule -->
<g id="node26" class="node">
<title>LoginScreenPageModule</title>
<polygon fill="#8dd3c7" stroke="#000000" points="2576.2921,-187 2573.2921,-191 2552.2921,-191 2549.2921,-187 2417.7079,-187 2417.7079,-151 2576.2921,-151 2576.2921,-187"/>
<text text-anchor="middle" x="2497" y="-164.8" font-family="Times,serif" font-size="14.00" fill="#000000">LoginScreenPageModule</text>
</g>
<!-- LoginScreenPage&#45;&gt;LoginScreenPageModule -->
<g id="edge16" class="edge">
<title>LoginScreenPage&#45;&gt;LoginScreenPageModule</title>
<path fill="none" stroke="#000000" d="M2497,-122.1061C2497,-122.1061 2497,-140.991 2497,-140.991"/>
<polygon fill="#000000" stroke="#000000" points="2493.5001,-140.9909 2497,-150.991 2500.5001,-140.991 2493.5001,-140.9909"/>
</g>
<!-- MeedsharePage -->
<g id="node27" class="node">
<title>MeedsharePage</title>
<polygon fill="#ffffb3" stroke="#000000" points="2726.1207,-122 2621.8793,-122 2621.8793,-86 2726.1207,-86 2726.1207,-122"/>
<text text-anchor="middle" x="2674" y="-99.8" font-family="Times,serif" font-size="14.00" fill="#000000">MeedsharePage</text>
</g>
<!-- MeedsharePageModule -->
<g id="node28" class="node">
<title>MeedsharePageModule</title>
<polygon fill="#8dd3c7" stroke="#000000" points="2748.1699,-187 2745.1699,-191 2724.1699,-191 2721.1699,-187 2599.8301,-187 2599.8301,-151 2748.1699,-151 2748.1699,-187"/>
<text text-anchor="middle" x="2674" y="-164.8" font-family="Times,serif" font-size="14.00" fill="#000000">MeedsharePageModule</text>
</g>
<!-- MeedsharePage&#45;&gt;MeedsharePageModule -->
<g id="edge17" class="edge">
<title>MeedsharePage&#45;&gt;MeedsharePageModule</title>
<path fill="none" stroke="#000000" d="M2674,-122.1061C2674,-122.1061 2674,-140.991 2674,-140.991"/>
<polygon fill="#000000" stroke="#000000" points="2670.5001,-140.9909 2674,-150.991 2677.5001,-140.991 2670.5001,-140.9909"/>
</g>
<!-- P2pTransferPage -->
<g id="node29" class="node">
<title>P2pTransferPage</title>
<polygon fill="#ffffb3" stroke="#000000" points="2906.4033,-122 2793.5967,-122 2793.5967,-86 2906.4033,-86 2906.4033,-122"/>
<text text-anchor="middle" x="2850" y="-99.8" font-family="Times,serif" font-size="14.00" fill="#000000">P2pTransferPage</text>
</g>
<!-- P2pTransferPageModule -->
<g id="node30" class="node">
<title>P2pTransferPageModule</title>
<polygon fill="#8dd3c7" stroke="#000000" points="2927.9524,-187 2924.9524,-191 2903.9524,-191 2900.9524,-187 2772.0476,-187 2772.0476,-151 2927.9524,-151 2927.9524,-187"/>
<text text-anchor="middle" x="2850" y="-164.8" font-family="Times,serif" font-size="14.00" fill="#000000">P2pTransferPageModule</text>
</g>
<!-- P2pTransferPage&#45;&gt;P2pTransferPageModule -->
<g id="edge18" class="edge">
<title>P2pTransferPage&#45;&gt;P2pTransferPageModule</title>
<path fill="none" stroke="#000000" d="M2850,-122.1061C2850,-122.1061 2850,-140.991 2850,-140.991"/>
<polygon fill="#000000" stroke="#000000" points="2846.5001,-140.9909 2850,-150.991 2853.5001,-140.991 2846.5001,-140.9909"/>
</g>
<!-- SingupEmailPage -->
<g id="node31" class="node">
<title>SingupEmailPage</title>
<polygon fill="#ffffb3" stroke="#000000" points="3090.3245,-122 2973.6755,-122 2973.6755,-86 3090.3245,-86 3090.3245,-122"/>
<text text-anchor="middle" x="3032" y="-99.8" font-family="Times,serif" font-size="14.00" fill="#000000">SingupEmailPage</text>
</g>
<!-- SingupEmailPageModule -->
<g id="node32" class="node">
<title>SingupEmailPageModule</title>
<polygon fill="#8dd3c7" stroke="#000000" points="3111.8738,-187 3108.8738,-191 3087.8738,-191 3084.8738,-187 2952.1262,-187 2952.1262,-151 3111.8738,-151 3111.8738,-187"/>
<text text-anchor="middle" x="3032" y="-164.8" font-family="Times,serif" font-size="14.00" fill="#000000">SingupEmailPageModule</text>
</g>
<!-- SingupEmailPage&#45;&gt;SingupEmailPageModule -->
<g id="edge19" class="edge">
<title>SingupEmailPage&#45;&gt;SingupEmailPageModule</title>
<path fill="none" stroke="#000000" d="M3032,-122.1061C3032,-122.1061 3032,-140.991 3032,-140.991"/>
<polygon fill="#000000" stroke="#000000" points="3028.5001,-140.9909 3032,-150.991 3035.5001,-140.991 3028.5001,-140.9909"/>
</g>
<!-- TransactionListPage -->
<g id="node33" class="node">
<title>TransactionListPage</title>
<polygon fill="#ffffb3" stroke="#000000" points="3288.573,-122 3157.427,-122 3157.427,-86 3288.573,-86 3288.573,-122"/>
<text text-anchor="middle" x="3223" y="-99.8" font-family="Times,serif" font-size="14.00" fill="#000000">TransactionListPage</text>
</g>
<!-- TransactionListPageModule -->
<g id="node34" class="node">
<title>TransactionListPageModule</title>
<polygon fill="#8dd3c7" stroke="#000000" points="3310.1232,-187 3307.1232,-191 3286.1232,-191 3283.1232,-187 3135.8768,-187 3135.8768,-151 3310.1232,-151 3310.1232,-187"/>
<text text-anchor="middle" x="3223" y="-164.8" font-family="Times,serif" font-size="14.00" fill="#000000">TransactionListPageModule</text>
</g>
<!-- TransactionListPage&#45;&gt;TransactionListPageModule -->
<g id="edge20" class="edge">
<title>TransactionListPage&#45;&gt;TransactionListPageModule</title>
<path fill="none" stroke="#000000" d="M3223,-122.1061C3223,-122.1061 3223,-140.991 3223,-140.991"/>
<polygon fill="#000000" stroke="#000000" points="3219.5001,-140.9909 3223,-150.991 3226.5001,-140.991 3219.5001,-140.9909"/>
</g>
</g>
</svg>
